<?xml version="1.0" standalone="no"?>
<!DOCTYPE svg PUBLIC "-//W3C//DTD SVG 20010904//EN"
 "http://www.w3.org/TR/2001/REC-SVG-20010904/DTD/svg10.dtd">
<svg version="1.0" xmlns="http://www.w3.org/2000/svg"
 width="326.000000pt" height="326.000000pt" viewBox="0 0 326.000000 326.000000"
 preserveAspectRatio="xMidYMid meet">
<metadata>
Created by potrace 1.11, written by Peter Selinger 2001-2013
</metadata>
<g transform="translate(0.000000,326.000000) scale(0.100000,-0.100000)"
fill="#000000" stroke="none">
<path d="M2498 2442 c-64 -91 -116 -139 -176 -160 -85 -31 -131 -76 -187 -182
-69 -131 -65 -129 -248 -129 -150 0 -183 -2 -282 -22 -27 -5 -61 -11 -75 -14
-48 -9 -176 -58 -255 -97 -187 -93 -301 -193 -366 -322 -21 -43 -39 -86 -39
-95 0 -15 -52 -65 -132 -125 -79 -59 -196 -75 -300 -40 -149 49 -203 133 -153
237 64 136 305 122 344 -20 21 -77 86 -106 141 -63 21 16 25 27 24 72 -2 106
-85 218 -193 259 -108 40 -262 35 -355 -13 -65 -33 -140 -116 -166 -183 -31
-80 -33 -193 -5 -250 40 -82 155 -168 283 -212 65 -23 97 -27 202 -30 132 -3
223 13 324 57 l45 19 43 -35 c23 -20 67 -49 99 -64 50 -26 57 -33 62 -67 4
-21 7 -55 7 -75 0 -76 22 -98 100 -104 19 -1 64 -5 100 -8 193 -16 227 -17
281 -11 42 5 59 11 59 22 0 12 2 12 16 -1 20 -20 31 -20 42 1 14 24 -5 59 -37
72 -36 15 -117 31 -157 33 -19 1 -34 4 -34 7 0 3 19 16 43 29 72 39 125 96
144 156 7 22 16 30 39 33 16 2 55 17 87 34 32 17 60 29 62 27 1 -1 6 -39 10
-83 12 -139 24 -225 36 -248 15 -29 50 -67 62 -67 5 0 22 -9 38 -21 l29 -20
10 27 c6 14 8 36 5 48 -6 21 -6 21 9 2 9 -11 16 -28 16 -37 0 -26 12 -29 48
-12 36 17 55 43 44 60 -4 6 -26 20 -49 32 -58 29 -78 62 -78 130 0 41 8 72 28
113 30 61 118 181 189 256 76 81 124 148 163 226 21 42 39 76 41 76 2 0 -9
-30 -23 -67 -41 -107 -41 -111 -1 -108 61 4 102 17 203 66 55 26 146 64 203
83 56 20 123 47 147 62 30 17 62 27 95 28 27 1 55 7 61 13 17 17 2 60 -27 79
-34 23 -81 20 -173 -10 -42 -14 -89 -27 -106 -30 -16 -4 -41 -9 -55 -12 -47
-10 -255 -12 -273 -2 -15 8 -17 17 -11 56 9 65 17 72 73 65 44 -5 50 -3 80 28
18 19 39 46 47 62 13 24 13 32 -5 75 -11 26 -25 66 -31 90 -11 42 -58 99 -134
161 -29 23 -30 34 -15 118 4 21 -2 63 -8 63 -5 0 -20 -18 -35 -38z"/>
</g>
</svg>
